<?xml version="1.0" encoding="utf-8"?>
<svg width="512" zoomAndPan="magnify" viewBox="0 0 384 383.999986" height="512" preserveAspectRatio="xMidYMid meet" version="1.0" xmlns="http://www.w3.org/2000/svg">
  <defs>
    <g/>
  </defs>
  <g>
    <title>Word</title>
    <path d="M 84.121 224.715 C 84.121 229.93 86.207 231.497 90.902 231.497 L 100.816 231.497 L 100.816 215.844 L 98.312 215.844 L 98.312 158.462 L 90.902 158.462 C 86.207 158.462 84.121 160.547 84.121 165.243 L 84.121 224.715 Z M 84.121 224.715" fill-opacity="1" style=""/>
    <path d="M 96.432 223.672 C 96.432 228.887 98.729 231.497 100.815 231.497 L 126.065 231.497 L 126.065 215.844 L 123.561 215.844 L 123.561 194.876 C 123.561 189.657 121.475 188.094 116.779 188.094 L 109.369 188.094 L 109.369 215.844 L 100.815 215.844 C 98.729 215.844 96.432 218.454 96.432 223.672 Z M 107.283 175.782 C 107.283 179.122 110.205 181.833 113.44 181.833 C 116.779 181.833 119.596 179.122 119.596 175.782 C 119.596 172.337 116.779 169.731 113.44 169.731 C 110.205 169.731 107.283 172.337 107.283 175.782 Z M 107.283 175.782" fill-opacity="1" style=""/>
    <path d="M 121.68 223.672 C 121.68 228.887 123.977 231.497 126.063 231.497 L 172.286 231.497 L 172.286 215.844 L 169.782 215.844 L 169.782 194.876 C 169.782 189.657 167.692 188.094 162.997 188.094 L 140.356 188.094 C 135.661 188.094 133.575 189.657 133.575 194.876 L 133.575 215.844 L 126.063 215.844 C 123.977 215.844 121.68 218.454 121.68 223.672 Z M 147.766 200.301 L 155.59 200.301 L 155.59 215.844 L 147.766 215.844 L 147.766 200.301 Z M 147.766 200.301" fill-opacity="1" style=""/>
    <path d="M 167.9 223.672 C 167.9 228.887 170.197 231.497 172.283 231.497 L 202.747 231.497 L 202.747 215.844 L 200.244 215.844 L 200.244 194.876 C 200.244 189.657 198.158 188.094 193.462 188.094 L 186.056 188.094 L 186.056 215.844 L 172.283 215.844 C 170.197 215.844 167.9 218.454 167.9 223.672 Z M 174.579 243.809 C 174.579 247.149 177.501 249.86 180.837 249.86 C 184.283 249.86 186.888 247.149 186.888 243.809 C 186.888 240.364 184.283 237.758 180.837 237.758 C 177.501 237.758 174.579 240.364 174.579 243.809 Z M 188.142 243.809 C 188.142 247.149 190.853 249.86 194.193 249.86 C 197.638 249.86 200.454 247.149 200.454 243.809 C 200.454 240.364 197.638 237.758 194.193 237.758 C 190.853 237.758 188.142 240.364 188.142 243.809 Z M 188.142 243.809" fill-opacity="1" style=""/>
    <path d="M 198.365 223.672 C 198.365 228.887 200.662 231.497 202.748 231.497 L 218.713 231.497 C 223.408 231.497 225.494 229.93 225.494 224.715 L 225.494 194.876 C 225.494 189.657 223.408 188.094 218.713 188.094 L 211.302 188.094 L 211.302 215.844 L 202.748 215.844 C 200.662 215.844 198.365 218.454 198.365 223.672 Z M 207.025 175.782 C 207.025 179.122 209.947 181.833 213.181 181.833 C 216.521 181.833 219.338 179.122 219.338 175.782 C 219.338 172.337 216.521 169.731 213.181 169.731 C 209.947 169.731 207.025 172.337 207.025 175.782 Z M 207.025 175.782" fill-opacity="1" style=""/>
    <path d="M 260.235 188.094 L 260.235 229.098 C 260.235 241.512 257.001 250.197 246.255 253.301 L 246.243 253.282 C 257.041 254.246 272.788 253.75 274.426 233.583 L 274.426 231.497 L 276.93 231.497 L 276.93 215.844 L 274.426 215.844 L 274.426 194.876 C 274.426 190.18 272.34 188.094 267.645 188.094 L 260.235 188.094 Z M 260.235 188.094" fill-opacity="1" style=""/>
    <path d="M 272.546 223.672 C 272.546 228.887 274.843 231.497 276.929 231.497 L 298.108 231.497 C 302.804 231.497 304.889 229.93 304.889 224.715 L 304.889 194.876 C 304.889 189.657 302.804 188.094 298.108 188.094 L 290.702 188.094 L 290.702 215.844 L 276.929 215.844 C 274.843 215.844 272.546 218.454 272.546 223.672 Z M 279.225 175.782 C 279.225 179.122 282.147 181.833 285.483 181.833 C 288.929 181.833 291.534 179.122 291.534 175.782 C 291.534 172.337 288.929 169.731 285.483 169.731 C 282.147 169.731 279.225 172.337 279.225 175.782 Z M 292.788 175.782 C 292.788 179.122 295.499 181.833 298.839 181.833 C 302.284 181.833 305.1 179.122 305.1 175.782 C 305.1 172.337 302.284 169.731 298.839 169.731 C 295.499 169.731 292.788 172.337 292.788 175.782 Z M 292.788 175.782" fill-opacity="1" style=""/>
  </g>
  <g>
    <title>Cross</title>
    <rect style="" x="235.852" y="115.867" width="15" height="115.63" rx="1" ry="1"/>
    <rect style="" transform="matrix(0, 1, -1, 0, 348.518372, -110.501091)" x="246.255" y="70.78" width="15" height="68.996" rx="1" ry="1"/>
  </g>
</svg>