<svg width="512" height="512" viewBox="0 0 512 512" fill="none" xmlns="http://www.w3.org/2000/svg">
<path d="M409.6 0H102.4C45.846 0 0 45.846 0 102.4V409.6C0 466.154 45.846 512 102.4 512H409.6C466.154 512 512 466.154 512 409.6V102.4C512 45.846 466.154 0 409.6 0Z" fill="url(#paint0_linear_406_180)"/>
<path d="M244.647 416.544C238.891 416.138 233.882 415.211 231.938 414.194C224.315 410.204 219.442 402.056 217.775 390.513C216.354 380.673 216.11 341.09 217.113 283.208L217.924 236.392L212.036 236.98C178.506 240.327 153.183 241.303 147.877 239.453C144.168 238.161 142.453 234.364 140.193 222.451C138.368 212.83 137.045 192.06 138.011 188.207C138.806 185.041 141.656 184.176 156.647 182.551C162.422 181.925 172.95 180.538 180.043 179.468C187.136 178.398 195.199 177.523 197.961 177.523C205.155 177.523 215.362 175.571 216.719 173.936C217.455 173.05 217.984 166.968 218.169 157.281C218.477 141.079 220.405 128.434 223.318 123.502C227.093 117.112 227.636 120.064 227.549 146.523C227.468 171.033 226.752 178.847 224.366 181.233C223.083 182.516 219.842 183.077 210.421 183.646C199.231 184.322 179.286 187.01 177.563 188.075C177.174 188.315 170.193 188.985 162.049 189.563C153.703 190.156 146.62 191.13 145.818 191.796C144.739 192.692 144.529 194.553 144.951 199.5C145.478 205.681 150.353 231.172 151.315 232.773C152.067 234.025 169.158 233.614 182.535 232.022C217.331 227.881 221.022 227.619 223.381 229.123C227.795 231.939 227.811 232.533 225.851 322.523C224.706 375.104 224.731 382.933 226.068 389.851C228.154 400.647 232.304 406.899 239.147 409.554C244.039 411.451 268.916 411.855 273.105 410.105C284.219 405.461 286.007 388.71 285.497 294.023L285.147 229.023L290.147 228.303C298.556 227.091 349.007 226.289 350.525 227.343C351.283 227.869 351.604 228.783 351.239 229.374C349.735 231.808 341.979 232.787 319.444 233.389C305.87 233.752 295.317 234.45 294.75 235.023C294.095 235.684 294.103 253.658 294.774 288.023C295.786 339.828 295.155 367.622 292.642 382.023C289.714 398.797 285.841 410.363 282.041 413.674C277.748 417.415 267.79 418.179 244.647 416.544ZM251.867 392.273C247.097 386.454 245.497 360.219 244.943 278.777L244.465 208.531L242.306 209.031C239.665 209.643 200.049 211.51 189.545 211.517C183.277 211.522 181.348 211.122 178.552 209.238C173.774 206.018 173.658 203.89 178.19 202.639C180.206 202.082 195.196 200.631 211.501 199.414C227.806 198.197 242.09 196.862 243.241 196.446C245.225 195.731 245.373 194.736 246.033 177.633C247.22 146.922 249.013 135.64 253.137 132.937C260.53 128.094 263.334 136.969 264.222 168.023C264.505 177.923 264.952 187.823 265.215 190.023L265.694 194.023H298.921C317.195 194.023 333.385 194.369 334.897 194.792C336.943 195.364 337.647 196.191 337.647 198.019C337.647 203.45 330.289 205.162 301.147 206.509C289.597 207.042 276.885 207.489 272.897 207.501L265.647 207.523L265.631 226.773C265.607 256.233 263.8 331.73 262.609 353.023C261.41 374.458 259.443 389.858 257.627 392.048C256.13 393.851 253.253 393.963 251.867 392.273ZM336.715 177.105C336.03 176.279 334.151 170.298 332.54 163.813C330.845 156.99 327.761 148.167 325.22 142.872C316.569 124.844 300.354 111.945 283.125 109.385C272.673 107.832 266.353 106.163 265.916 104.841C265.117 102.422 270.069 101.1 279.647 101.175C313.321 101.44 337.117 121.337 340.603 152.145C341.643 161.337 340.674 175.896 338.904 177.666C338.315 178.255 337.495 178.045 336.715 177.105ZM360.2 176.273C359.988 175.586 359.56 170.073 359.249 164.023C358.243 144.476 354.997 130.36 348.327 116.523C345.063 109.752 342.595 106.396 336.188 100.023C323.639 87.5381 310.723 82.157 285.989 79.108C274.056 77.636 272.647 77.204 272.647 75.009C272.647 72.845 278.723 72.186 291.682 72.944C332.334 75.321 357.291 92.003 365.105 122.02C368.821 136.293 369.352 154.09 366.479 168.023C364.957 175.404 361.379 180.105 360.2 176.273ZM311.379 174.86C311.379 174.86 310.128 170.657 309.202 166.542C306.201 153.208 299.06 142.779 289.705 138.066C285.327 135.86 283.69 135.4 275.397 134.045C265.742 132.468 275.527 127.831 286.134 128.957C299.262 130.351 308.869 136.343 312.321 145.291C314.476 150.875 314.986 172.585 313.01 174.561C312.384 175.186 311.651 175.321 311.379 174.86Z" fill="white" stroke="white" stroke-width="5"/>
<defs>
<linearGradient id="paint0_linear_406_180" x1="256" y1="0" x2="256" y2="512" gradientUnits="userSpaceOnUse">
<stop stop-color="#FF7D63"/>
<stop offset="1" stop-color="#FF5432"/>
</linearGradient>
</defs>
</svg>
